<svg viewBox="0 0 538 151" fill="none" xmlns="http://www.w3.org/2000/svg">
<path d="M13.8377 86.3928H69.3425V99.6155H13.8377V86.3928ZM15.3753 143.128H0V35.5006H75.9538V48.8771H15.3753V143.128Z" fill="#111318"/>
<path d="M295.162 143.128L339.904 82.0877V93.9267L297.622 35.5006H315.15L348.668 81.4727L341.749 81.6264L375.113 35.5006H391.872L349.898 93.0041V81.9339L394.64 143.128H376.958L341.288 94.0804H348.053L312.844 143.128H295.162Z" fill="#111318"/>
<path d="M480.035 143.128V101.922L483.572 111.454L437.292 35.5006H453.743L492.643 99.6155H483.725L522.778 35.5006H538L491.874 111.454L495.257 101.922V143.128H480.035Z" fill="#111318"/>
<path d="M189.117 143.127C215.495 143.127 237.165 122.223 237.165 95.3935C237.165 88.8077 236.828 81.7479 233.177 70.7738C229.525 59.7997 228.792 58.3839 224.932 51.606C223.282 65.4341 214.457 71.1998 212.215 72.9231C212.215 71.1294 206.879 51.3113 198.784 39.4499C190.837 27.8127 180.03 20.1795 173.694 15C173.694 24.8338 170.929 39.4531 166.967 46.9037C163.008 54.3511 162.265 54.6234 157.316 60.1649C152.37 65.7064 150.099 67.4201 145.961 74.1468C141.825 80.8734 141.069 89.8327 141.069 96.4185C141.069 123.248 162.739 143.127 189.117 143.127Z" stroke="#FF740F" stroke-width="14"/>
</svg>
