<svg viewBox="0 0 73 36" fill="none" xmlns="http://www.w3.org/2000/svg">
<g clip-path="url(#clip0_474_292)">
<path d="M0 8.18314H12.6972V11.7583H0V8.18314ZM11.0511 -3.89362e-05L13.9005 -6.10352e-05V3.81345L11.8212 3.81348C11.1024 3.78699 10.4735 3.86644 9.93442 4.05182C9.42101 4.23721 9.01028 4.58148 8.70224 5.08465C8.41987 5.58783 8.27868 6.30286 8.27868 7.22976V27.7274H3.96607V6.83252C3.96607 5.24355 4.24844 3.94589 4.81319 2.93955C5.37793 1.9332 6.18655 1.19168 7.23903 0.714995C8.31719 0.238306 9.58787 -3.89362e-05 11.0511 -3.89362e-05Z" fill="currentColor"/>
<path d="M51.8286 7.94482L42.8183 18.869L36.0415 27.7274H30.8047L40.277 16.2074L46.6304 7.94482H51.8286ZM30.8047 7.94482H36.0799L42.8568 16.2074L52.3292 27.7274H47.0924L40.0845 18.9484L30.8047 7.94482Z" fill="currentColor"/>
<path d="M51.4062 7.94482H55.9884L63.728 26.933L60.0315 27.7274L51.4062 7.94482ZM72.7768 7.94482L60.455 35.6723H55.9499L61.2252 24.8276L68.1946 7.94482H72.7768Z" fill="currentColor"/>
<path d="M22.4621 27.7241C27.0864 27.7241 30.8852 23.741 30.8852 18.6288C30.8852 17.3739 30.8263 16.0286 30.1861 13.9376C29.5459 11.8466 29.4174 11.5768 28.7407 10.2853C28.4515 12.9202 26.9045 14.0188 26.5114 14.3472C26.5114 14.0054 24.9547 10.5307 23.5357 8.27057C22.1425 6.05317 20.8691 4.29724 19.7583 3.3103C19.7583 5.18404 19.2737 7.96965 18.5791 9.38934C17.885 10.8084 17.7548 10.8603 16.8872 11.9162C16.0202 12.9721 15.622 13.2986 14.8965 14.5803C14.1716 15.8621 14.0391 17.5692 14.0391 18.824C14.0391 23.9363 17.8379 27.7241 22.4621 27.7241Z" fill="url(#paint0_radial_474_292)"/>
</g>
<defs>
<radialGradient id="paint0_radial_474_292" cx="0" cy="0" r="1" gradientUnits="userSpaceOnUse" gradientTransform="translate(22.4621 -4.16412e-05) rotate(90) scale(31.6552 21.8429)">
<stop stop-color="#FF7712"/>
<stop offset="1" stop-color="#FF9926"/>
</radialGradient>
<clipPath id="clip0_474_292">
<rect width="73" height="36" fill="currentColor"/>
</clipPath>
</defs>
</svg>
