<svg width="192" height="192" viewBox="0 0 192 192" fill="none" xmlns="http://www.w3.org/2000/svg">
<rect width="192" height="192" fill="white"/>
<path d="M95.5 161C121.028 161 142 139.627 142 112.196C142 105.463 141.674 98.2445 138.14 87.0243C134.606 75.8042 133.897 74.3566 130.161 67.4267C128.565 81.5649 120.024 87.4599 117.854 89.2218C117.854 87.3878 109.26 68.7432 101.427 56.6159C93.7356 44.7178 86.7053 35.2957 80.5735 30C80.5735 40.0543 77.8982 55.0014 74.0635 62.619C70.2319 70.2334 69.5127 70.5118 64.7232 76.1775C59.9368 81.8433 57.7389 83.5954 53.7337 90.4729C49.7316 97.3504 49 106.511 49 113.244C49 140.675 69.9715 161 95.5 161Z" fill="url(#paint0_linear_825_282)"/>
<defs>
<linearGradient id="paint0_linear_825_282" x1="95.5" y1="30" x2="95.5" y2="220.949" gradientUnits="userSpaceOnUse">
<stop stop-color="#FF740F"/>
<stop offset="1" stop-color="#FFAD32"/>
</linearGradient>
</defs>
</svg>
